<mxfile host="Electron" modified="2023-12-13T14:52:38.813Z" agent="Mozilla/5.0 (Windows NT 10.0; Win64; x64) AppleWebKit/537.36 (KHTML, like Gecko) draw.io/22.1.2 Chrome/114.0.5735.289 Electron/25.9.4 Safari/537.36" etag="_L28FTcGY9T61KkVY_JU" version="22.1.2" type="device">
  <diagram name="ページ1" id="Y1j2VQPb-obRdgqvu2pn">
    <mxGraphModel dx="1434" dy="836" grid="1" gridSize="10" guides="1" tooltips="1" connect="1" arrows="1" fold="1" page="1" pageScale="1" pageWidth="827" pageHeight="1169" math="0" shadow="0">
      <root>
        <mxCell id="0" />
        <mxCell id="1" parent="0" />
        <mxCell id="Iy-hIcfxYpHh1erWiFP9-1" value="pipenv install &quot;packages&quot;" style="text;html=1;strokeColor=none;fillColor=none;align=center;verticalAlign=middle;whiteSpace=wrap;rounded=0;" vertex="1" parent="1">
          <mxGeometry x="90" y="200" width="150" height="30" as="geometry" />
        </mxCell>
        <mxCell id="Iy-hIcfxYpHh1erWiFP9-5" value="pipfile" style="rounded=0;whiteSpace=wrap;html=1;" vertex="1" parent="1">
          <mxGeometry x="320" y="250" width="70" height="40" as="geometry" />
        </mxCell>
        <mxCell id="Iy-hIcfxYpHh1erWiFP9-6" value="自分で環境を設定する場合" style="text;html=1;strokeColor=none;fillColor=none;align=center;verticalAlign=middle;whiteSpace=wrap;rounded=0;" vertex="1" parent="1">
          <mxGeometry x="60" y="80" width="200" height="30" as="geometry" />
        </mxCell>
        <mxCell id="Iy-hIcfxYpHh1erWiFP9-7" value="pipfile.lock" style="rounded=0;whiteSpace=wrap;html=1;" vertex="1" parent="1">
          <mxGeometry x="320" y="290" width="70" height="40" as="geometry" />
        </mxCell>
        <mxCell id="Iy-hIcfxYpHh1erWiFP9-8" value="Folder" style="text;html=1;strokeColor=none;fillColor=none;align=center;verticalAlign=middle;whiteSpace=wrap;rounded=0;" vertex="1" parent="1">
          <mxGeometry x="325" y="110" width="60" height="30" as="geometry" />
        </mxCell>
        <mxCell id="Iy-hIcfxYpHh1erWiFP9-10" value="venv" style="text;html=1;strokeColor=none;fillColor=none;align=center;verticalAlign=middle;whiteSpace=wrap;rounded=0;" vertex="1" parent="1">
          <mxGeometry x="490" y="110" width="60" height="30" as="geometry" />
        </mxCell>
        <mxCell id="Iy-hIcfxYpHh1erWiFP9-11" value="venv created&lt;br&gt;packages installed in venv" style="text;html=1;strokeColor=none;fillColor=none;align=center;verticalAlign=middle;whiteSpace=wrap;rounded=0;" vertex="1" parent="1">
          <mxGeometry x="460" y="250" width="120" height="50" as="geometry" />
        </mxCell>
        <mxCell id="Iy-hIcfxYpHh1erWiFP9-12" value="pipfileとpipfile.lockに情報がかかれる" style="text;html=1;strokeColor=none;fillColor=none;align=center;verticalAlign=middle;whiteSpace=wrap;rounded=0;" vertex="1" parent="1">
          <mxGeometry x="304" y="340" width="110" height="30" as="geometry" />
        </mxCell>
        <mxCell id="Iy-hIcfxYpHh1erWiFP9-13" value="pipenvの環境に入ってpipenv内にinstallされたpackageを用いるとき" style="text;html=1;strokeColor=none;fillColor=none;align=center;verticalAlign=middle;whiteSpace=wrap;rounded=0;" vertex="1" parent="1">
          <mxGeometry x="60" y="400" width="200" height="30" as="geometry" />
        </mxCell>
        <mxCell id="Iy-hIcfxYpHh1erWiFP9-14" value="pipenv shell" style="text;html=1;strokeColor=none;fillColor=none;align=center;verticalAlign=middle;whiteSpace=wrap;rounded=0;" vertex="1" parent="1">
          <mxGeometry x="110" y="460" width="100" height="30" as="geometry" />
        </mxCell>
        <mxCell id="Iy-hIcfxYpHh1erWiFP9-15" value="pipenv run commandで仮想環境内でコマンドを打てる。&lt;br&gt;pipenv run python3 -m test.pyみたいな感じ" style="text;html=1;strokeColor=none;fillColor=none;align=center;verticalAlign=middle;whiteSpace=wrap;rounded=0;" vertex="1" parent="1">
          <mxGeometry x="10" y="520" width="330" height="30" as="geometry" />
        </mxCell>
        <mxCell id="Iy-hIcfxYpHh1erWiFP9-16" value="他人のpipfileとpipfile.lockをもらって環境を再現するとき&lt;br&gt;python3.8 -m pip install pipenv &lt;br&gt;python3.8 -m pipenv sync &lt;br&gt;python3.8 -m pipenv install -e ." style="text;html=1;strokeColor=none;fillColor=none;align=center;verticalAlign=middle;whiteSpace=wrap;rounded=0;" vertex="1" parent="1">
          <mxGeometry x="10" y="630" width="330" height="70" as="geometry" />
        </mxCell>
        <mxCell id="Iy-hIcfxYpHh1erWiFP9-17" value="☆syncを使うことでpipfile.lockにある情報を複製した環境を作成できる。installを使うと、pipfileに書いてあるパッケージの最新版をinstallするから微妙に複製とは異なってしまう" style="text;html=1;strokeColor=none;fillColor=none;align=center;verticalAlign=middle;whiteSpace=wrap;rounded=0;" vertex="1" parent="1">
          <mxGeometry x="20" y="720" width="500" height="30" as="geometry" />
        </mxCell>
        <mxCell id="Iy-hIcfxYpHh1erWiFP9-18" value="install -e .　とは.=current directlyのlibrary 構造になっているものを自作packageとしてinstallして、該当の仮想環境にinstallする作業をいう。こうすることで内部の関数をどこからでも呼び出せる。-e means editableで編集可能。ソースコードのままlibraryとして保存され、ソースコードの編集が反映される" style="text;html=1;strokeColor=none;fillColor=none;align=center;verticalAlign=middle;whiteSpace=wrap;rounded=0;" vertex="1" parent="1">
          <mxGeometry x="20" y="770" width="447.5" height="60" as="geometry" />
        </mxCell>
        <mxCell id="Iy-hIcfxYpHh1erWiFP9-19" value="pipfile" style="rounded=0;whiteSpace=wrap;html=1;" vertex="1" parent="1">
          <mxGeometry x="340" y="630" width="70" height="40" as="geometry" />
        </mxCell>
        <mxCell id="Iy-hIcfxYpHh1erWiFP9-20" value="pipfile.lock" style="rounded=0;whiteSpace=wrap;html=1;" vertex="1" parent="1">
          <mxGeometry x="340" y="670" width="70" height="40" as="geometry" />
        </mxCell>
        <mxCell id="Iy-hIcfxYpHh1erWiFP9-22" value="" style="endArrow=classic;html=1;rounded=0;" edge="1" parent="1" target="Iy-hIcfxYpHh1erWiFP9-23">
          <mxGeometry width="50" height="50" relative="1" as="geometry">
            <mxPoint x="410" y="690" as="sourcePoint" />
            <mxPoint x="500" y="670" as="targetPoint" />
          </mxGeometry>
        </mxCell>
        <mxCell id="Iy-hIcfxYpHh1erWiFP9-23" value="create venv&lt;br&gt;and install packages in venev which are same version with" style="text;html=1;strokeColor=none;fillColor=none;align=center;verticalAlign=middle;whiteSpace=wrap;rounded=0;" vertex="1" parent="1">
          <mxGeometry x="470" y="655" width="130" height="30" as="geometry" />
        </mxCell>
      </root>
    </mxGraphModel>
  </diagram>
</mxfile>
